HIERARCHY
ROOT Hips
{
  OFFSET 95.7656 80.011 -116.673
  CHANNELS 6 Xposition Yposition Zposition Zrotation Xrotation Yrotation
  JOINT Spine
  {
    OFFSET 0 14.2686 0
    CHANNELS 3 Zrotation Xrotation Yrotation
    JOINT Spine1
    {
      OFFSET 0 30.7889 0.153192
      CHANNELS 3 Zrotation Xrotation Yrotation
      JOINT HEad
      {
        OFFSET 0 10.481 0.013608
        CHANNELS 3 Zrotation Xrotation Yrotation
        End Site
        {
          OFFSET -0.348 15.329 3.01674
        }
      }
      JOINT LeftShoulder1
      {
        OFFSET 10.788 -0.4347 -0.264
        CHANNELS 3 Zrotation Xrotation Yrotation
        JOINT LeftArm
        {
          OFFSET 12.3392 -0.004056 0.386544
          CHANNELS 3 Zrotation Xrotation Yrotation
          JOINT LeftForeArm
          {
            OFFSET 39.3203 0.118968 -1.70921
            CHANNELS 3 Zrotation Xrotation Yrotation
            JOINT LeftHand
            {
              OFFSET 33.0772 0.102432 1.22659
              CHANNELS 3 Zrotation Xrotation Yrotation
              End Site
              {
                OFFSET 20.0932 -0.72 1.80349
              }
            }
          }
        }
      }
      JOINT RightShoulder
      {
        OFFSET -10.788 -0.4347 -0.264
        CHANNELS 3 Zrotation Xrotation Yrotation
        JOINT RightArm
        {
          OFFSET -12.3392 -0.004056 0.386544
          CHANNELS 3 Zrotation Xrotation Yrotation
          JOINT RightForeArm
          {
            OFFSET -39.4765 0.118968 -1.70921
            CHANNELS 3 Zrotation Xrotation Yrotation
            JOINT RightHand
            {
              OFFSET -32.9905 0.102432 1.22659
              CHANNELS 3 Zrotation Xrotation Yrotation
              End Site
              {
                OFFSET -19.9574 -0.72 1.80349
              }
            }
          }
        }
      }
    }
  }
  JOINT LeftUpLeg
  {
    OFFSET 10.735 -10.4005 0.12198
    CHANNELS 3 Zrotation Xrotation Yrotation
    JOINT LeftLeg
    {
      OFFSET 0 -53.3072 1.64724
      CHANNELS 3 Zrotation Xrotation Yrotation
      JOINT LeftFoot
      {
        OFFSET -0.30426 -50.5109 -1.75271
        CHANNELS 3 Zrotation Xrotation Yrotation
        JOINT LeftToes
        {
          OFFSET -0.048 -5.29811 10.1989
          CHANNELS 3 Zrotation Xrotation Yrotation
          End Site
          {
            OFFSET 0.096 -0.05694 11.7357
          }
        }
      }
    }
  }
  JOINT RightUpLeg
  {
    OFFSET -10.735 -10.4005 0.12198
    CHANNELS 3 Zrotation Xrotation Yrotation
    JOINT RightLeg
    {
      OFFSET 0 -53.3072 1.64724
      CHANNELS 3 Zrotation Xrotation Yrotation
      JOINT RightFoot
      {
        OFFSET 0.30426 -50.5109 -1.75271
        CHANNELS 3 Zrotation Xrotation Yrotation
        JOINT RightToes
        {
          OFFSET 0.048 -5.29811 10.1989
          CHANNELS 3 Zrotation Xrotation Yrotation
          End Site
          {
            OFFSET -0.096 -0.16494 11.7357
          }
        }
      }
    }
  }
}
MOTION
Frames:	15
Frame Time:	0.0166667
89.1343 71.3975 -119.951 -8.39619 7.99784 -32.6227 6.50218 6.63625 13.7946 -1.10593 -0.424818 -0.589676 9.32136 30.6291 23.4852 -13.2521 2.7961 7.38019 -63.7396 -31.0039 -52.3134 -64.7679 49.3453 -100.051 6.32901 17.3407 32.9273 21.5075 73.1356 28.8195 125.816 -3.75961 160.149 17.5144 89.1338 115.553 13.6768 14.7181 -27.924 43.4701 -61.014 53.1196 38.8833 89.9894 0.417806 93.4823 -18.2643 25.2973 -97.5625 12.0259 -31.4786 -17.2857 -46.0244 8.52674 -10.3393 67.2251 22.3082 51.9989 -33.5398 18.4403 0.864445 16.9749 -41.3645 
92.6054 75.7168 -118.267 -10.4592 10.0426 -36.1543 11.8175 3.97195 12.3041 0.712439 0.203441 0.379481 5.02145 42.7389 25.1813 -17.1711 4.28142 10.5277 -61.9521 -30.5977 -49.5195 -63.9528 48.4119 -99.9995 5.78292 17.0354 35.712 15.8714 73.4091 32.3905 127.032 -4.73807 159.794 -161.038 89.0429 -64.9423 12.8076 13.585 -24.9804 40.6018 -57.6129 52.3479 38.0117 84.0987 -4.31359 73.946 -21.8443 23.2932 -75.7473 7.42084 -25.416 -12.1576 -44.5502 6.28547 -7.86171 70.738 23.768 47.1184 -33.717 15.8319 13.35 26.1839 -41.7595 
95.7656 80.011 -116.673 -11.1828 11.0865 -39.0389 15.1747 0.918542 10.6714 0.968064 -0.221825 0.659616 0.458371 52.1985 26.8246 -21.6884 5.10661 12.4832 -58.8569 -30.6636 -46.9394 -63.5378 48.7188 -101.112 3.42706 15.7836 33.9593 12.3182 73.4442 35.6774 128.874 -5.73818 158.583 -159.039 88.4785 -64.9604 12.416 12.1559 -23.773 36.9794 -54.9709 50.8652 35.7865 77.4681 -9.67066 54.2334 -26.0505 20.1376 -57.7735 29.6438 -32.5282 -6.59745 -41.8257 3.70804 -7.2588 75.6971 26.1631 46.4563 -32.8219 13.9244 -1.95506 17.7654 -29.1521 
98.7445 84.3859 -115.194 -11.2752 12.181 -40.6997 17.7026 -1.31858 9.42536 1.53186 -0.659119 0.8224 -4.08923 59.5263 28.3949 -25.5822 5.82916 14.2393 -55.8012 -31.2906 -44.7392 -63.1591 49.6838 -102.414 2.18951 15.5162 36.2515 9.84067 73.2867 37.3944 130.861 -7.8771 157.23 -157.47 88.0093 -64.9657 12.1521 10.658 -22.9668 33.5522 -52.5052 48.4893 35.4163 71.3605 -17.2629 43.2662 -30.0599 16.8203 -47.0993 23.6513 -21.2887 -1.7514 -39.3361 0.570143 -8.08822 81.4258 28.1831 45.473 -31.8661 11.3173 3.72592 26.0637 -25.6316 
101.348 88.4325 -113.906 -8.43012 11.9624 -43.3087 17.2703 -4.08656 9.26534 1.90489 -1.0892 0.824019 -8.4304 65.0743 29.8567 -29.0997 6.54762 15.8766 -52.826 -32.4227 -42.7902 -62.4974 50.938 -103.623 1.08049 14.748 36.3158 8.66122 72.7897 38.1572 132.703 -10.0368 156.246 -155.932 88.0782 -64.7107 12.2287 9.05034 -23.9933 27.7928 -51.2703 45.6374 33.6677 64.5344 -24.6 31.7543 -34.5926 13.6677 -28.2861 37.6191 -27.4452 1.42323 -37.5393 -2.24668 -8.91146 87.3637 28.734 43.2214 -30.8189 8.23203 6.95824 23.5777 -15.3486 
103.575 91.9883 -112.9 -5.50413 11.5702 -45.4843 15.2287 -5.73214 9.6935 1.87106 -1.88423 0.355553 -11.1753 68.3961 30.366 -31.3653 5.96065 15.6318 -50.0808 -33.5523 -41.4195 -61.8341 51.9246 -104.86 0.98699 14.809 38.8501 9.84491 71.7591 37.3931 134.188 -12.0582 155.15 -154.968 88.0691 -64.5093 12.2937 7.52445 -25.1444 21.9281 -50.388 41.5019 32.1884 58.0161 -30.7341 19.5336 -37.4542 10.1699 -22.5041 36.9437 -14.9429 4.44402 -34.5191 -3.99758 -9.42234 89.2848 26.734 27.6444 -30.4116 4.7488 5.15231 17.0779 -10.488 
105.602 95.0017 -112.223 -0.382468 10.7183 -48.3115 11.8366 -7.88239 11.7755 1.59862 -2.56548 0.411046 -13.7196 70.6105 30.9601 -33.1236 5.74979 15.8118 -47.0953 -35.5341 -40.4463 -60.5449 53.1067 -105.425 1.20435 14.6129 40.2422 11.3545 71.201 35.3895 135.181 -14.359 154.09 -154.957 87.7216 -64.8367 12.5006 6.04982 -27.7377 14.6357 -51.5273 36.522 30.3811 52.1417 -36.8799 6.69678 -40.8288 5.69351 4.15179 42.407 -17.5199 5.96079 -32.4082 -4.44916 -8.88013 88.0113 23.5727 20.3523 -30.497 3.28068 -1.16625 -1.90712 2.05018 
107.277 97.4627 -111.877 3.7876 10.2241 -50.375 9.25092 -10.4927 12.8503 0.762803 -3.07072 -0.296172 -15.8653 71.7048 31.4988 -34.6743 5.23095 15.4579 -44.2466 -37.945 -40.1351 -59.8981 53.7402 -106.047 1.23962 14.8491 42.3361 14.4679 71.1222 33.2315 135.355 -15.5249 153.399 -154.537 87.5156 -64.42 12.5244 4.83779 -28.7094 8.03631 -51.5446 30.2345 29.2474 45.0142 -41.0479 -6.57119 -43.9552 2.08372 4.46931 44.7538 -4.68351 7.83656 -29.878 -3.6509 -7.51992 83.2254 18.3587 10.0243 -30.1019 1.22614 -0.677723 -12.8759 1.78764 
108.691 99.466 -111.795 7.06948 10.3528 -52.3683 7.25068 -13.1135 13.5558 -0.88833 -3.26105 -1.18592 -17.689 71.5463 32.058 -36.1252 4.71187 14.9562 -41.1422 -40.6843 -40.7155 -59.8324 54.3879 -106.556 0.568398 14.6942 42.9491 18.679 72.2252 31.1082 134.929 -15.8794 152.773 -154.468 86.7362 -64.1458 12.5819 4.03659 -29.1028 2.16412 -51.2075 22.6567 27.9855 38.4624 -44.4849 -19.7303 -47.143 -1.4411 25.1462 46.7856 -16.6246 9.78483 -27.8696 -2.46763 -7.89115 76.1823 15.1121 4.56825 -29.6977 -0.691213 -6.47886 -22.6502 0.15462 
110.143 100.746 -111.875 9.14573 11.1101 -52.492 5.45857 -14.2518 13.5388 -2.83326 0.98249 -2.56796 -19.3211 69.967 32.7215 -31.8564 6.99644 4.29142 -48.0686 -53.6507 -44.3971 -58.5687 55.5781 -105.364 -0.983455 14.2007 44.0285 28.7827 73.3034 17.7829 131.19 -4.43083 151.011 -155.05 83.8434 -64.8714 12.5177 4.79551 -28.6697 -0.963918 -50.7385 16.8082 26.1362 33.7598 -43.0171 -9.83513 -46.7117 1.123 8.6258 50.4311 -3.32008 11.8902 -25.1667 -1.46952 -9.96049 68.074 12.6216 -3.82872 -29.3226 -3.04798 14.1283 -16.4056 -6.78974 
111.434 101.703 -112.01 10.016 12.4964 -52.0186 5.69852 -15.3246 13.5738 -3.17779 4.6243 -3.83691 -20.8891 68.4128 33.4156 -29.1531 8.91773 -2.45757 -55.2897 -61.1164 -48.3121 -57.4224 55.9969 -104.735 -3.21686 13.48 43.9119 36.1536 73.9606 8.05135 128.863 2.05318 150 -154.963 81.6937 -65.3928 12.19 5.09869 -26.8769 -2.67945 -49.8792 11.6679 24.2659 29.2074 -40.8708 0.274037 -46.3168 4.56042 -6.44587 51.3362 3.81302 14.9939 -22.0447 -0.841772 -12.2074 59.3959 10.6603 -9.76241 -28.9186 -5.48652 21.1702 -14.7536 -13.6005 
112.641 102.435 -112.088 9.72088 13.9188 -51.2342 7.55686 -17.5548 13.1687 -2.94066 6.19646 -5.48773 -22.4309 67.0755 34.156 -26.8585 9.28678 -7.46615 -57.9212 -64.0076 -50.5148 -56.522 53.849 -104.495 -5.65647 12.64 43.0192 41.8205 74.75 1.35 127.467 6.30511 149.859 -153.998 80.2235 -65.1805 11.3793 5.18221 -23.6682 -2.84151 -48.547 6.9795 22.3817 25.2809 -39.1134 10.4467 -45.7005 8.35751 -19.935 49.0806 6.54789 18.6087 -17.8823 -0.610846 -14.5754 49.8602 9.05353 -13.7799 -28.7063 -7.6951 20.4737 -14.1154 -16.9774 
113.896 103.006 -112.106 9.20792 16.3837 -50.4428 8.42426 -18.4867 12.7504 -3.3083 7.75323 -7.03456 -23.9726 65.7176 34.9892 -25.4077 10.033 -10.1819 -57.6513 -65.6864 -50.9289 -56.5934 52.9363 -104.989 -7.84865 11.7995 42.3912 46.9736 75.3193 -3.79072 128.899 7.51291 149.949 -152.946 80.1702 -66.5259 9.36485 5.22172 -21.8124 -2.13145 -48.749 2.69715 21.4041 23.0539 -37.4515 20.5042 -44.7035 12.4159 -31.2741 43.6818 6.88787 22.3777 -12.4383 -1.32506 -16.0539 35.8397 7.40811 -16.4698 -28.1549 -9.6793 15.7353 -14.178 -16.4305 
115.081 102.937 -112.146 8.34609 18.0292 -50.8424 8.78503 -18.7495 12.1966 -3.08804 8.3026 -8.47007 -24.7454 67.3475 35.4051 -24.635 9.76947 -11.4314 -54.0622 -65.8281 -48.4581 -56.8514 50.3143 -103.415 -8.61003 12.0519 41.685 49.3038 76.6235 -6.07209 128.831 9.45216 150.892 -151.949 77.0353 -68.1995 10.0033 5.75378 -20.8597 -0.100041 -47.3653 -1.52402 19.5937 19.8327 -34.9358 30.9765 -43.8902 16.3889 -38.7969 46.13 10.6849 25.9136 -5.93335 -3.21763 -16.5787 19.2186 4.05285 -16.7777 -25.9327 -11.8233 6.30818 -14.0591 -16.3305 
116.299 102.948 -112.152 7.97549 17.59 -52.3417 7.29702 -17.4285 11.5943 -1.76579 8.15453 -9.54547 -25.6467 68.4924 35.9811 -24.8062 9.62759 -11.8803 -50.2743 -64.1473 -44.8918 -56.8477 47.8643 -99.8288 -8.33994 13.1467 40.2201 51.0127 78.5108 -7.19975 129.318 11.1934 151.996 -151.688 75.166 -70.283 10.8654 6.48023 -20.2726 1.27307 -44.8283 -4.74137 17.2514 16.6914 -31.0897 41.537 -41.9783 20.5589 -47.445 49.0883 15.3048 26.7277 1.27108 -5.93045 -15.6774 2.05106 -0.201577 -16.0861 -21.923 -13.3541 0.435018 -12.5799 -11.836 
